<?xml version="1.0" standalone="no"?>
<!DOCTYPE svg PUBLIC "-//W3C//DTD SVG 20010904//EN"
 "http://www.w3.org/TR/2001/REC-SVG-20010904/DTD/svg10.dtd">
<svg version="1.0" xmlns="http://www.w3.org/2000/svg"
 width="64.000000pt" height="64.000000pt" viewBox="0 0 64.000000 64.000000"
 preserveAspectRatio="xMidYMid meet">
<g transform="translate(0.000000,64.000000) scale(0.100000,-0.100000)"
fill="#000000" stroke="none">
<path d="M72 408 c-16 -16 -16 -140 0 -156 16 -16 190 -16 206 0 18 18 15 133
-4 152 -19 20 -183 23 -202 4z"/>
<path d="M371 406 c-7 -9 -11 -42 -9 -88 l3 -73 33 -3 32 -3 -21 -31 -22 -30
27 -26 27 -27 37 21 c20 12 52 40 70 63 29 39 32 49 32 115 0 43 -5 77 -12 84
-18 18 -182 16 -197 -2z"/>
</g>
</svg>